<svg width="16" height="16" fill="none" xmlns="http://www.w3.org/2000/svg"><path d="M10.453 0C14.933 0 16 1.067 16 5.547v4.906C16 14.933 14.933 16 10.453 16H5.547C1.067 16 0 14.933 0 10.453V5.547C0 1.067 1.067 0 5.547 0h4.906z" fill="#2787F5"/><path d="M4.167 5H3c-.333 0-.4.157-.4.33 0 .309.396 1.842 1.842 3.869.964 1.384 2.322 2.134 3.558 2.134.742 0 .833-.166.833-.453V9.833c0-.333.07-.4.305-.4.174 0 .47.087 1.162.754.791.792.922 1.146 1.367 1.146h1.166c.334 0 .5-.166.404-.495-.105-.328-.483-.804-.984-1.367-.272-.322-.68-.668-.803-.84-.173-.223-.124-.322 0-.52l.02-.03c.176-.25 1.412-2.02 1.55-2.652.074-.247 0-.429-.353-.429H11.5a.504.504 0 0 0-.508.33S10.4 6.776 9.56 7.715c-.272.272-.396.359-.544.359-.074 0-.182-.087-.182-.334V5.43C8.833 5.132 8.747 5 8.5 5H6.667c-.186 0-.297.138-.297.268 0 .281.42.346.463 1.137v1.718c0 .377-.068.445-.216.445-.395 0-1.358-1.452-1.928-3.114C4.577 5.13 4.465 5 4.167 5z" fill="#fff"/></svg>